<svg width="79" height="56" viewBox="0 0 79 56" fill="none" xmlns="http://www.w3.org/2000/svg">
<path fill-rule="evenodd" clip-rule="evenodd" d="M0 1.48649C0 0.665523 0.665523 0 1.48649 0H17.7247H36.9158H52.4167C53.2376 0 53.9031 0.665523 53.9031 1.48649V8.84002H66.4412C67.0807 8.84002 67.6486 9.24903 67.8512 9.85561L72.6788 24.3102H77.513C78.334 24.3102 78.9995 24.9757 78.9995 25.7966V45.6868C78.9995 46.5078 78.334 47.1733 77.513 47.1733H75.1921C74.4702 52.165 70.1664 56.0004 64.965 56.0004C59.5105 56.0004 55.043 51.7826 54.6582 46.4366H52.4311L52.4167 46.4367H30.984C30.5992 51.7826 26.1317 56.0004 20.6772 56.0004C15.2228 56.0004 10.7553 51.7826 10.3705 46.4367H1.48649C0.665523 46.4367 0 45.7712 0 44.9502V1.48649ZM54.872 43.4637C55.8907 38.8364 60.0226 35.3735 64.965 35.3735C70.1663 35.3735 74.4701 39.2088 75.1921 44.2003H76.0265V27.2831H71.6081H53.9035V43.4637H54.872ZM50.9302 43.4637H30.7702C29.7516 38.8364 25.6196 35.3735 20.6772 35.3735C15.7349 35.3735 11.6029 38.8364 10.5843 43.4637H2.97297V2.97297H16.2382V16.22C16.2382 16.7429 16.5131 17.2275 16.9619 17.4958C17.4108 17.7642 17.9677 17.7769 18.4284 17.5293L27.3203 12.7508L36.2121 17.5293C36.6728 17.7769 37.2297 17.7642 37.6786 17.4958C38.1274 17.2275 38.4023 16.7429 38.4023 16.22V2.97297H50.9302V43.4637ZM53.9031 24.3102H69.5444L65.3705 11.813H53.9031V24.3102ZM19.2112 2.97297H35.4293V13.7336L28.0239 9.75386C27.5845 9.51772 27.056 9.51772 26.6166 9.75386L19.2112 13.7336V2.97297ZM31.0012 26.5332C31.0012 25.7123 31.6667 25.0468 32.4877 25.0468H42.8214C43.6423 25.0468 44.3078 25.7123 44.3078 26.5332C44.3078 27.3542 43.6423 28.0197 42.8214 28.0197H32.4877C31.6667 28.0197 31.0012 27.3542 31.0012 26.5332ZM35.4402 33.887C34.6192 33.887 33.9537 34.5525 33.9537 35.3735C33.9537 36.1945 34.6192 36.86 35.4402 36.86H42.8206C43.6415 36.86 44.3071 36.1945 44.3071 35.3735C44.3071 34.5525 43.6415 33.887 42.8206 33.887H35.4402ZM20.6772 53.0274C24.7479 53.0274 28.0379 49.7355 28.0379 45.6869C28.0379 41.6384 24.7479 38.3465 20.6772 38.3465C16.6066 38.3465 13.3166 41.6384 13.3166 45.6869C13.3166 49.7355 16.6066 53.0274 20.6772 53.0274ZM72.3257 45.6869C72.3257 49.7355 69.0357 53.0274 64.965 53.0274C60.8943 53.0274 57.6043 49.7355 57.6043 45.6869C57.6043 41.6384 60.8943 38.3465 64.965 38.3465C69.0357 38.3465 72.3257 41.6384 72.3257 45.6869Z" fill="#C5358C"/>
</svg>
