<svg width="34" height="33" viewBox="0 0 34 33" fill="none" xmlns="http://www.w3.org/2000/svg">
<path d="M16.5244 1.08203C16.6741 0.621376 17.3259 0.621376 17.4756 1.08203L20.79 11.2832C20.9908 11.9012 21.567 12.3193 22.2168 12.3193H32.9434C33.4277 12.3193 33.6292 12.9399 33.2373 13.2246L24.5596 19.5293C24.0338 19.9113 23.8139 20.588 24.0146 21.2061L27.3291 31.4082C27.4784 31.8687 26.9513 32.2514 26.5596 31.9668L17.8818 25.6621C17.3561 25.2801 16.6439 25.2801 16.1182 25.6621L7.44043 31.9668C7.04868 32.2514 6.52162 31.8687 6.6709 31.4082L9.98535 21.2061C10.1861 20.588 9.96615 19.9113 9.44043 19.5293L0.762695 13.2246C0.370838 12.9399 0.572279 12.3193 1.05664 12.3193H11.7832C12.433 12.3193 13.0092 11.9012 13.21 11.2832L16.5244 1.08203Z" stroke="#111111"/>
</svg>
