<svg width="19" height="19" viewBox="0 0 19 19" fill="none" xmlns="http://www.w3.org/2000/svg">
<path fill-rule="evenodd" clip-rule="evenodd" d="M18.5165 2.253C18.907 1.86248 18.907 1.22931 18.5165 0.83879C18.126 0.448265 17.4928 0.448265 17.1023 0.83879L9.67784 8.26326L2.25327 0.838682C1.86274 0.448158 1.22958 0.448158 0.839052 0.838682C0.448527 1.22921 0.448528 1.86237 0.839052 2.2529L8.26363 9.67747L0.838484 17.1026C0.44796 17.4931 0.447959 18.1263 0.838484 18.5168C1.22901 18.9074 1.86217 18.9074 2.2527 18.5168L9.67784 11.0917L17.1029 18.5167C17.4934 18.9072 18.1266 18.9072 18.5171 18.5167C18.9076 18.1262 18.9076 17.493 18.5171 17.1025L11.0921 9.67747L18.5165 2.253Z" fill="#ABABAB"/>
</svg>
