<svg width="215" height="40" viewBox="0 0 215 40" fill="none" xmlns="http://www.w3.org/2000/svg">
<path d="M193.524 3.08203C193.674 2.62138 194.326 2.62138 194.476 3.08203L197.79 13.2832C197.991 13.9012 198.567 14.3193 199.217 14.3193H209.943C210.428 14.3193 210.629 14.9399 210.237 15.2246L201.56 21.5293C201.034 21.9113 200.814 22.588 201.015 23.2061L204.329 33.4082C204.478 33.8687 203.951 34.2514 203.56 33.9668L194.882 27.6621C194.356 27.2801 193.644 27.2801 193.118 27.6621L184.44 33.9668C184.049 34.2514 183.522 33.8687 183.671 33.4082L186.985 23.2061C187.186 22.588 186.966 21.9113 186.44 21.5293L177.763 15.2246C177.371 14.9399 177.572 14.3193 178.057 14.3193H188.783C189.433 14.3193 190.009 13.9012 190.21 13.2832L193.524 3.08203Z" stroke="#111111"/>
<path d="M150.524 3.08203C150.674 2.62138 151.326 2.62138 151.476 3.08203L154.79 13.2832C154.991 13.9012 155.567 14.3193 156.217 14.3193H166.943C167.428 14.3193 167.629 14.9399 167.237 15.2246L158.56 21.5293C158.034 21.9113 157.814 22.588 158.015 23.2061L161.329 33.4082C161.478 33.8687 160.951 34.2514 160.56 33.9668L151.882 27.6621C151.356 27.2801 150.644 27.2801 150.118 27.6621L141.44 33.9668C141.049 34.2514 140.522 33.8687 140.671 33.4082L143.985 23.2061C144.186 22.588 143.966 21.9113 143.44 21.5293L134.763 15.2246C134.371 14.9399 134.572 14.3193 135.057 14.3193H145.783C146.433 14.3193 147.009 13.9012 147.21 13.2832L150.524 3.08203Z" stroke="#111111"/>
<path d="M106.524 3.08203C106.674 2.62138 107.326 2.62138 107.476 3.08203L110.79 13.2832C110.991 13.9012 111.567 14.3193 112.217 14.3193H122.943C123.428 14.3193 123.629 14.9399 123.237 15.2246L114.56 21.5293C114.034 21.9113 113.814 22.588 114.015 23.2061L117.329 33.4082C117.478 33.8687 116.951 34.2514 116.56 33.9668L107.882 27.6621C107.356 27.2801 106.644 27.2801 106.118 27.6621L97.4404 33.9668C97.0487 34.2514 96.5216 33.8687 96.6709 33.4082L99.9854 23.2061C100.186 22.588 99.9662 21.9113 99.4404 21.5293L90.7627 15.2246C90.3708 14.9399 90.5723 14.3193 91.0566 14.3193H101.783C102.433 14.3193 103.009 13.9012 103.21 13.2832L106.524 3.08203Z" stroke="#111111"/>
<path d="M63.5244 3.08203C63.6741 2.62138 64.3259 2.62138 64.4756 3.08203L67.79 13.2832C67.9908 13.9012 68.567 14.3193 69.2168 14.3193H79.9434C80.4277 14.3193 80.6292 14.9399 80.2373 15.2246L71.5596 21.5293C71.0338 21.9113 70.8139 22.588 71.0146 23.2061L74.3291 33.4082C74.4784 33.8687 73.9513 34.2514 73.5596 33.9668L64.8818 27.6621C64.3561 27.2801 63.6439 27.2801 63.1182 27.6621L54.4404 33.9668C54.0487 34.2514 53.5216 33.8687 53.6709 33.4082L56.9854 23.2061C57.1861 22.588 56.9662 21.9113 56.4404 21.5293L47.7627 15.2246C47.3708 14.9399 47.5723 14.3193 48.0566 14.3193H58.7832C59.433 14.3193 60.0092 13.9012 60.21 13.2832L63.5244 3.08203Z" stroke="#111111"/>
<path d="M19.5244 3.08203C19.6741 2.62138 20.3259 2.62138 20.4756 3.08203L23.79 13.2832C23.9908 13.9012 24.567 14.3193 25.2168 14.3193H35.9434C36.4277 14.3193 36.6292 14.9399 36.2373 15.2246L27.5596 21.5293C27.0338 21.9113 26.8139 22.588 27.0146 23.2061L30.3291 33.4082C30.4784 33.8687 29.9513 34.2514 29.5596 33.9668L20.8818 27.6621C20.3561 27.2801 19.6439 27.2801 19.1182 27.6621L10.4404 33.9668C10.0487 34.2514 9.52162 33.8687 9.6709 33.4082L12.9854 23.2061C13.1861 22.588 12.9662 21.9113 12.4404 21.5293L3.7627 15.2246C3.37084 14.9399 3.57228 14.3193 4.05664 14.3193H14.7832C15.433 14.3193 16.0092 13.9012 16.21 13.2832L19.5244 3.08203Z" stroke="#111111"/>
</svg>
