<svg width="78" height="80" viewBox="0 0 78 80" fill="none" xmlns="http://www.w3.org/2000/svg">
<path d="M59.5761 46.3411V78H2V36.4098H42.0449H43.3367M59.5761 46.3411L76 37.8086V9.36687C76 9.36687 73.6304 7.69294 72.3538 6.1047C71.1216 4.57176 69.9102 2 69.9102 2H49.288C49.288 2 48.6618 4.56592 47.4629 6.1047C46.2103 7.71236 43.3367 9.36687 43.3367 9.36687V36.4098M59.5761 46.3411L43.3367 36.4098M54.9626 23.0748L58.2843 26.0589L65.4813 19.9975M10.3965 44.4294H21.6534V55.6196H10.3965V44.4294ZM9.28928 64.5718H15.1945V69.0479H9.28928V64.5718ZM46.3815 64.5718H52.2868V69.0479H46.3815V64.5718ZM34.0175 64.5718H39.9227V69.0479H34.0175V64.5718ZM21.6534 64.5718H27.5586V69.0479H21.6534V64.5718Z" stroke="#C5358C" stroke-width="3" stroke-linecap="round" stroke-linejoin="round"/>
</svg>
