<svg width="80" height="55" viewBox="0 0 80 55" fill="none" xmlns="http://www.w3.org/2000/svg">
<path opacity="0.9" d="M32.7907 2H2V53H32.7907M32.7907 2H78V53H32.7907M32.7907 2V53M9.62791 27.3591H24.3256M9.62791 38.7238H24.3256M9.62791 15.6188H24.3256M63.0251 12.4254L48.4186 41.0718M70.1861 35.5304C70.1861 39.0577 67.3956 41.9171 63.9535 41.9171C60.5113 41.9171 57.7209 39.0577 57.7209 35.5304C57.7209 32.0031 60.5113 29.1436 63.9535 29.1436C67.3956 29.1436 70.1861 32.0031 70.1861 35.5304ZM53.4419 18.2486C53.4419 21.7759 50.6515 24.6354 47.2093 24.6354C43.7672 24.6354 40.9767 21.7759 40.9767 18.2486C40.9767 14.7213 43.7672 11.8619 47.2093 11.8619C50.6515 11.8619 53.4419 14.7213 53.4419 18.2486Z" stroke="#C5358C" stroke-width="3" stroke-linecap="round" stroke-linejoin="round"/>
</svg>
