<svg width="23" height="19" viewBox="0 0 23 19" fill="none" xmlns="http://www.w3.org/2000/svg">
<path fill-rule="evenodd" clip-rule="evenodd" d="M2.17357 8.65626C7.98938 6.12231 11.8672 4.45161 13.8071 3.64417C19.3475 1.34091 20.5047 0.940914 21.2489 0.926031C21.5249 0.920666 21.7956 1.002 22.0229 1.15859C22.1824 1.29612 22.284 1.48883 22.3075 1.69812C22.3476 1.95842 22.3588 2.22234 22.341 2.4851C22.0415 5.64789 20.741 13.2925 20.0805 16.8256C19.8015 18.3139 19.2508 18.8218 18.7168 18.8721C17.5596 18.9781 16.6703 18.1056 15.554 17.3707C13.7978 16.2191 12.8061 15.5102 11.1019 14.3791C9.13171 13.0767 10.4098 12.3679 11.5317 11.2032C11.8257 10.8981 16.9271 6.2544 17.0275 5.83394C17.0408 5.77185 17.0392 5.70752 17.0231 5.64612C17.0069 5.58472 16.9766 5.52798 16.9345 5.48045C16.8734 5.44228 16.8043 5.41888 16.7326 5.4121C16.6609 5.40531 16.5886 5.41534 16.5215 5.44138C16.3466 5.47983 13.5423 7.33347 8.10846 11.0023C7.31218 11.5493 6.59094 11.816 5.94474 11.8023C5.23218 11.7856 3.86287 11.3986 2.84333 11.0581C1.59496 10.6525 0.610782 10.4386 0.688922 9.7558C0.734813 9.39859 1.22969 9.03208 2.17357 8.65626Z" fill="#111111"/>
</svg>
