<svg width="22" height="16" viewBox="0 0 22 16" fill="none" xmlns="http://www.w3.org/2000/svg">
<path d="M20.866 2.91644C20.7481 2.4771 20.5167 2.0765 20.1951 1.75484C19.8734 1.43319 19.4728 1.20179 19.0335 1.08388C17.4186 0.650388 10.9349 0.650391 10.9349 0.650391C10.9349 0.650391 4.45114 0.650388 2.83439 1.08388C2.39556 1.20282 1.99551 1.43456 1.67401 1.75606C1.35251 2.07755 1.12078 2.4776 1.00184 2.91644C0.568351 4.53318 0.568359 7.9062 0.568359 7.9062C0.568359 7.9062 0.568351 11.2792 1.00184 12.896C1.12078 13.3348 1.35251 13.7349 1.67401 14.0563C1.99551 14.3778 2.39556 14.6096 2.83439 14.7285C4.45114 15.162 10.9349 15.162 10.9349 15.162C10.9349 15.162 17.4167 15.162 19.0335 14.7285C19.4728 14.6106 19.8734 14.3792 20.1951 14.0576C20.5167 13.7359 20.7481 13.3353 20.866 12.896C21.2995 11.2792 21.2995 7.9062 21.2995 7.9062C21.2995 7.9062 21.2995 4.53318 20.866 2.91644ZM8.86044 11.015V4.79737L14.2558 7.9062L8.86044 11.015Z" fill="#111111"/>
</svg>
